Normalized EMG Linear Envelopes
nRows=252
nColumns=4

endheader
time	 med_gas_r	  soleus_r	 tib_ant_r	
2.86089	  0.003793	  0.005800	  0.001676	
2.89415	  0.003737	  0.005853	  0.001680	
2.92742	  0.003688	  0.005891	  0.001683	
2.96069	  0.003643	  0.005899	  0.001683	
2.99395	  0.003606	  0.005867	  0.001682	
3.02722	  0.003586	  0.005794	  0.001678	
3.06048	  0.003589	  0.005696	  0.001667	
3.09375	  0.003640	  0.005599	  0.001657	
3.12702	  0.003751	  0.005517	  0.001648	
3.16028	  0.003917	  0.005458	  0.001641	
3.19355	  0.004114	  0.005421	  0.001638	
3.22681	  0.004331	  0.005404	  0.001639	
3.26008	  0.004554	  0.005404	  0.001639	
3.29335	  0.004752	  0.005408	  0.001633	
3.32661	  0.004884	  0.005406	  0.001622	
3.35988	  0.004942	  0.005396	  0.001611	
3.39315	  0.004939	  0.005395	  0.001607	
3.42641	  0.004879	  0.005407	  0.001608	
3.45968	  0.004771	  0.005428	  0.001615	
3.49294	  0.004631	  0.005452	  0.001629	
3.52621	  0.004454	  0.005472	  0.001648	
3.55948	  0.004250	  0.005476	  0.001664	
3.59274	  0.004035	  0.005474	  0.001676	
3.62601	  0.003843	  0.005478	  0.001686	
3.65927	  0.003696	  0.005477	  0.001694	
3.69254	  0.003596	  0.005469	  0.001694	
3.72581	  0.003536	  0.005465	  0.001684	
3.75907	  0.003521	  0.005476	  0.001667	
3.79234	  0.003557	  0.005510	  0.001646	
3.8256	  0.003635	  0.005573	  0.001627	
3.85887	  0.003733	  0.005644	  0.001613	
3.89214	  0.003836	  0.005694	  0.001608	
3.9254	  0.003926	  0.005713	  0.001615	
3.95867	  0.003978	  0.005697	  0.001626	
3.99194	  0.003977	  0.005650	  0.001636	
4.0252	  0.003930	  0.005592	  0.001649	
4.05847	  0.003849	  0.005541	  0.001665	
4.09173	  0.003752	  0.005504	  0.001681	
4.125	  0.003663	  0.005479	  0.001695	
4.15827	  0.003604	  0.005443	  0.001704	
4.19153	  0.003593	  0.005392	  0.001706	
4.2248	  0.003631	  0.005337	  0.001702	
4.25806	  0.003701	  0.005306	  0.001692	
4.29133	  0.003781	  0.005317	  0.001680	
4.3246	  0.003848	  0.005373	  0.001669	
4.35786	  0.003883	  0.005467	  0.001662	
4.39113	  0.003863	  0.005578	  0.001662	
4.4244	  0.003789	  0.005687	  0.001671	
4.45766	  0.003685	  0.005773	  0.001687	
4.49093	  0.003582	  0.005812	  0.001710	
4.52419	  0.003505	  0.005804	  0.001737	
4.55746	  0.003481	  0.005763	  0.001773	
4.59073	  0.003530	  0.005698	  0.001820	
4.62399	  0.003648	  0.005601	  0.001883	
4.65726	  0.003802	  0.005475	  0.001964	
4.69052	  0.003946	  0.005342	  0.002069	
4.72379	  0.004052	  0.005237	  0.002198	
4.75706	  0.004116	  0.005216	  0.002351	
4.79032	  0.004134	  0.005335	  0.002510	
4.82359	  0.004107	  0.005662	  0.002638	
4.85685	  0.004053	  0.006251	  0.002672	
4.89012	  0.003977	  0.007139	  0.002526	
4.92339	  0.003881	  0.008328	  0.002090	
4.95665	  0.003770	  0.009741	  0.001230	
4.98992	  0.003630	  0.011196	 -0.000205	
5.02319	  0.003445	  0.012394	 -0.002353	
5.05645	  0.003199	  0.012873	 -0.005295	
5.08972	  0.002880	  0.012014	 -0.008995	
5.12298	  0.002505	  0.009787	 -0.013201	
5.15625	  0.002137	  0.006912	 -0.017345	
5.18952	  0.001868	  0.004069	 -0.020421	
5.22278	  0.001820	  0.001887	 -0.020870	
5.25605	  0.002145	  0.001012	 -0.016490	
5.28931	  0.003031	  0.002181	 -0.004437	
5.32258	  0.004705	  0.006244	  0.018640	
5.35585	  0.007393	  0.014122	  0.056216	
5.38911	  0.011284	  0.026668	  0.111193	
5.42238	  0.016447	  0.044434	  0.184776	
5.45565	  0.022706	  0.067296	  0.274834	
5.48891	  0.029493	  0.093952	  0.373889	
5.52218	  0.035836	  0.121759	  0.470070	
5.55544	  0.040904	  0.147958	  0.552413	
5.58871	  0.044143	  0.170631	  0.615084	
5.62198	  0.045540	  0.189268	  0.658930	
5.65524	  0.045545	  0.203146	  0.688795	
5.68851	  0.044773	  0.211613	  0.709077	
5.72177	  0.043832	  0.215634	  0.722093	
5.75504	  0.043260	  0.217728	  0.729515	
5.78831	  0.043285	  0.219441	  0.733265	
5.82157	  0.043816	  0.220888	  0.735715	
5.85484	  0.044676	  0.221569	  0.737622	
5.8881	  0.045439	  0.218979	  0.738318	
5.92137	  0.045921	  0.211786	  0.735936	
5.95464	  0.046300	  0.202134	  0.727140	
5.9879	  0.046621	  0.192523	  0.712202	
6.02117	  0.046700	  0.184036	  0.693956	
6.05444	  0.046469	  0.177416	  0.677709	
6.0877	  0.045980	  0.172542	  0.667325	
6.12097	  0.045274	  0.169200	  0.661472	
6.15423	  0.044395	  0.167180	  0.658357	
6.1875	  0.043356	  0.165794	  0.655743	
6.22077	  0.042260	  0.164472	  0.652448	
6.25403	  0.041206	  0.162822	  0.649928	
6.2873	  0.040190	  0.160449	  0.646555	
6.32056	  0.039142	  0.157056	  0.640841	
6.35383	  0.038088	  0.153298	  0.632495	
6.3871	  0.037103	  0.149850	  0.621906	
6.42036	  0.036295	  0.147384	  0.612399	
6.45363	  0.035722	  0.145931	  0.608485	
6.4869	  0.035421	  0.144757	  0.610529	
6.52016	  0.035358	  0.142898	  0.615754	
6.55343	  0.035309	  0.140330	  0.620551	
6.58669	  0.034974	  0.137687	  0.624623	
6.61996	  0.034255	  0.135728	  0.628923	
6.65323	  0.033354	  0.134524	  0.633479	
6.68649	  0.032607	  0.133966	  0.636758	
6.71976	  0.032301	  0.133854	  0.638535	
6.75302	  0.032484	  0.134084	  0.640378	
6.78629	  0.033004	  0.134991	  0.643053	
6.81956	  0.033788	  0.136842	  0.645982	
6.85282	  0.034812	  0.139790	  0.645967	
6.88609	  0.035826	  0.143967	  0.640592	
6.91935	  0.036593	  0.149538	  0.630245	
6.95262	  0.036947	  0.156291	  0.618782	
6.98589	  0.036970	  0.164199	  0.610432	
7.01915	  0.036869	  0.172437	  0.608800	
7.05242	  0.036846	  0.179219	  0.615317	
7.08569	  0.036986	  0.184163	  0.628899	
7.11895	  0.037214	  0.187763	  0.645548	
7.15222	  0.037407	  0.190048	  0.660615	
7.18548	  0.037538	  0.190937	  0.668979	
7.21875	  0.037636	  0.190150	  0.668146	
7.25202	  0.037712	  0.187646	  0.659115	
7.28528	  0.037743	  0.184352	  0.645444	
7.31855	  0.037606	  0.180507	  0.631284	
7.35181	  0.037191	  0.175707	  0.618639	
7.38508	  0.036491	  0.170059	  0.606249	
7.41835	  0.035600	  0.163912	  0.595992	
7.45161	  0.034769	  0.158044	  0.589122	
7.48488	  0.034200	  0.153537	  0.585814	
7.51815	  0.033911	  0.151169	  0.584523	
7.55141	  0.033799	  0.151308	  0.582518	
7.58468	  0.033802	  0.154111	  0.579420	
7.61794	  0.033838	  0.158831	  0.575682	
7.65121	  0.033879	  0.164450	  0.572746	
7.68448	  0.033915	  0.169313	  0.571615	
7.71774	  0.033950	  0.172077	  0.572226	
7.75101	  0.033954	  0.172173	  0.574423	
7.78427	  0.034091	  0.170579	  0.578331	
7.81754	  0.034503	  0.168599	  0.582969	
7.85081	  0.035109	  0.166708	  0.586575	
7.88407	  0.035781	  0.165467	  0.586250	
7.91734	  0.036569	  0.166489	  0.582192	
7.9506	  0.037444	  0.170173	  0.577767	
7.98387	  0.038392	  0.175350	  0.577159	
8.01714	  0.039419	  0.179906	  0.582073	
8.0504	  0.040533	  0.182446	  0.591096	
8.08367	  0.041796	  0.182699	  0.602918	
8.11694	  0.043145	  0.181739	  0.618253	
8.1502	  0.044267	  0.181225	  0.636485	
8.18347	  0.044941	  0.182695	  0.655447	
8.21673	  0.044953	  0.186640	  0.671424	
8.25	  0.044229	  0.191481	  0.681344	
8.28327	  0.043099	  0.194890	  0.684521	
8.31653	  0.042233	  0.196712	  0.683442	
8.3498	  0.042105	  0.198102	  0.681716	
8.38306	  0.042854	  0.200658	  0.680894	
8.41633	  0.044362	  0.204768	  0.680238	
8.4496	  0.046420	  0.210863	  0.678631	
8.48286	  0.048397	  0.217921	  0.674518	
8.51613	  0.049502	  0.222782	  0.666580	
8.5494	  0.049358	  0.222515	  0.655471	
8.58266	  0.047927	  0.216356	  0.642251	
8.61593	  0.045498	  0.205977	  0.626542	
8.64919	  0.042674	  0.193609	  0.609271	
8.68246	  0.039959	  0.180595	  0.595265	
8.71573	  0.037640	  0.168143	  0.587127	
8.74899	  0.035763	  0.157218	  0.583565	
8.78226	  0.034332	  0.148755	  0.582254	
8.81552	  0.033283	  0.143222	  0.580132	
8.84879	  0.032575	  0.140514	  0.576454	
8.88206	  0.032314	  0.140518	  0.572295	
8.91532	  0.032446	  0.142134	  0.568955	
8.94859	  0.032808	  0.144461	  0.565897	
8.98185	  0.033223	  0.146754	  0.563282	
9.01512	  0.033440	  0.147787	  0.562515	
9.04839	  0.033560	  0.147734	  0.564644	
9.08165	  0.033975	  0.148036	  0.568330	
9.11492	  0.034874	  0.150079	  0.572248	
9.14819	  0.036169	  0.154163	  0.576070	
9.18145	  0.037718	  0.160549	  0.580646	
9.21472	  0.039459	  0.169178	  0.587336	
9.24798	  0.041335	  0.179669	  0.596803	
9.28125	  0.043172	  0.190741	  0.607392	
9.31452	  0.044716	  0.200573	  0.613720	
9.34778	  0.045767	  0.208064	  0.613157	
9.38105	  0.046121	  0.212025	  0.605878	
9.41431	  0.045798	  0.212217	  0.592294	
9.44758	  0.044952	  0.208909	  0.573628	
9.48085	  0.043717	  0.202721	  0.550736	
9.51411	  0.042359	  0.195510	  0.527763	
9.54738	  0.041023	  0.188097	  0.509371	
9.58065	  0.039997	  0.181392	  0.498693	
9.61391	  0.039437	  0.176467	  0.495346	
9.64718	  0.039283	  0.173810	  0.495487	
9.68044	  0.039507	  0.173711	  0.495738	
9.71371	  0.040185	  0.175868	  0.496038	
9.74698	  0.041216	  0.178949	  0.496148	
9.78024	  0.042443	  0.181832	  0.496773	
9.81351	  0.043527	  0.183711	  0.497318	
9.84677	  0.044059	  0.183716	  0.496576	
9.88004	  0.043835	  0.181623	  0.494581	
9.91331	  0.043153	  0.178277	  0.493853	
9.94657	  0.042451	  0.174588	  0.497179	
9.97984	  0.042064	  0.171260	  0.505703	
10.0131	  0.042035	  0.168451	  0.518220	
10.0464	  0.041936	  0.165524	  0.531467	
10.0796	  0.041085	  0.160906	  0.540141	
10.1129	  0.039079	  0.153324	  0.538360	
10.1462	  0.035850	  0.142218	  0.521685	
10.1794	  0.031664	  0.128370	  0.486277	
10.2127	  0.026837	  0.112437	  0.431476	
10.246	  0.021690	  0.094649	  0.360631	
10.2792	  0.016660	  0.075622	  0.281176	
10.3125	  0.012238	  0.057019	  0.203551	
10.3458	  0.008710	  0.040551	  0.135430	
10.379	  0.006117	  0.027273	  0.080707	
10.4123	  0.004369	  0.017462	  0.040235	
10.4456	  0.003321	  0.010801	  0.012815	
10.4788	  0.002808	  0.006629	 -0.003844	
10.5121	  0.002674	  0.004245	 -0.012378	
10.5454	  0.002779	  0.003133	 -0.015292	
10.5786	  0.003001	  0.002866	 -0.014703	
10.6119	  0.003244	  0.003102	 -0.012244	
10.6452	  0.003453	  0.003611	 -0.009057	
10.6784	  0.003609	  0.004241	 -0.005865	
10.7117	  0.003710	  0.004879	 -0.003080	
10.745	  0.003779	  0.005452	 -0.000875	
10.7782	  0.003832	  0.005936	  0.000723	
10.8115	  0.003868	  0.006317	  0.001775	
10.8448	  0.003884	  0.006592	  0.002385	
10.878	  0.003866	  0.006753	  0.002668	
10.9113	  0.003818	  0.006791	  0.002728	
10.9446	  0.003748	  0.006702	  0.002652	
10.9778	  0.003655	  0.006478	  0.002506	
11.0111	  0.003538	  0.006169	  0.002340	
11.0444	  0.003407	  0.005861	  0.002187	
11.0776	  0.003286	  0.005632	  0.002069	
11.1109	  0.003195	  0.005522	  0.001992	
11.1442	  0.003143	  0.005524	  0.001954	
11.1774	  0.003130	  0.005608	  0.001938	
11.2107	  0.003146	  0.005721	  0.001922	
